# xmcd
#
# Track frame offsets:
#	150
#	10947
#	21793
#	33159
#	45463
#	57178
#	69101
#	82733
#	95374
#	106596
#	118953
#	132592
#	144545
#	155283
#	167816
#	177807
#	190674
#	202643
#
# Disc length: 2852 seconds
#
# Revision: 1
# Processed by: cddbd v1.5.2PL0 Copyright (c) Steve Scherf et al.
# Submitted via: audiograbber 1.83.01
#
DISCID=d60b2212
DTITLE=Various Artist - Country Legends Vol. 4
DYEAR=2006
DGENRE=Country
TTITLE0=Slim Whitman - Rose Marie
TTITLE1=Johnny Cash - Cry, Cry, Cry
TTITLE2=Patsy Cline - Walkin' After Midnight
TTITLE3=Hank Williams - Move It On Over
TTITLE4=Tennessee Ernie Ford - Sixteen Tons
TTITLE5=Gene Autry - Blueberry Hill
TTITLE6=Bill Monroe - Blue Moon of Kentucky
TTITLE7=Hank Snow - I'm Movin' On
TTITLE8=Chet Atkins - Nashville Jump
TTITLE9=Merle Travis - Louisiana Boogie
TTITLE10=Patti Page - Tennessee Waltz
TTITLE11=Red Foley - Tennessee Saturday Night
TTITLE12=Guy Mitchell - Singing the Blues
TTITLE13=Earnest Tubb - You Nearly Lose Your Mind
TTITLE14=Johnny Horton - Tennessee Jive
TTITLE15=Tex Williams - I've Got Texas in my Soul
TTITLE16=Betsy Gay - Hound Dog
TTITLE17=Elvis Presley - I Forgot to Remember to Forget
EXTD=
EXTT0=
EXTT1=
EXTT2=
EXTT3=
EXTT4=
EXTT5=
EXTT6=
EXTT7=
EXTT8=
EXTT9=
EXTT10=
EXTT11=
EXTT12=
EXTT13=
EXTT14=
EXTT15=
EXTT16=
EXTT17=
PLAYORDER=
